<svg width="19" height="19" viewBox="0 0 19 19" fill="none" xmlns="http://www.w3.org/2000/svg">
<path d="M8.87023 14.286C8.95293 14.3687 9.05112 14.4343 9.15917 14.4791C9.26723 14.5238 9.38305 14.5469 9.50001 14.5469C9.61697 14.5469 9.73279 14.5238 9.84085 14.4791C9.94891 14.4343 10.0471 14.3687 10.1298 14.286L13.4885 10.9273C13.6556 10.7602 13.7494 10.5337 13.7494 10.2975C13.7494 10.0613 13.6556 9.83476 13.4885 9.66773C13.3215 9.50071 13.095 9.40688 12.8588 9.40688C12.6226 9.40688 12.396 9.50071 12.229 9.66773L10.3906 11.5061V1.78125C10.3906 1.54504 10.2968 1.31851 10.1298 1.15148C9.96275 0.984458 9.73622 0.890625 9.50001 0.890625C9.2638 0.890625 9.03727 0.984458 8.87024 1.15148C8.70322 1.31851 8.60939 1.54504 8.60939 1.78125V11.5061L6.77103 9.66773C6.604 9.50071 6.37747 9.40688 6.14126 9.40688C5.90505 9.40688 5.67852 9.50071 5.5115 9.66773C5.34447 9.83476 5.25064 10.0613 5.25064 10.2975C5.25064 10.5337 5.34447 10.7602 5.5115 10.9273L8.87023 14.286Z" fill="white"/>
<path d="M17.2188 8.60938C16.9825 8.60938 16.756 8.70321 16.589 8.87023C16.422 9.03726 16.3281 9.26379 16.3281 9.5V16.3281H2.67188V9.5C2.67188 9.26379 2.57804 9.03726 2.41102 8.87023C2.24399 8.70321 2.01746 8.60938 1.78125 8.60938C1.54504 8.60938 1.31851 8.70321 1.15148 8.87023C0.984458 9.03726 0.890625 9.26379 0.890625 9.5V16.625C0.890625 17.0187 1.04701 17.3962 1.32539 17.6746C1.60376 17.953 1.98132 18.1094 2.375 18.1094H16.625C17.0187 18.1094 17.3962 17.953 17.6746 17.6746C17.953 17.3962 18.1094 17.0187 18.1094 16.625V9.5C18.1094 9.26379 18.0155 9.03726 17.8485 8.87023C17.6815 8.70321 17.455 8.60938 17.2188 8.60938Z" fill="white"/>
</svg>
